<?xml version="1.0" standalone="no"?>
<!DOCTYPE svg PUBLIC "-//W3C//DTD SVG 20010904//EN"
 "http://www.w3.org/TR/2001/REC-SVG-20010904/DTD/svg10.dtd">
<svg version="1.0" xmlns="http://www.w3.org/2000/svg"
 width="500.000000pt" height="500.000000pt" viewBox="0 0 500.000000 500.000000"
 preserveAspectRatio="xMidYMid meet">
<metadata>
Created by potrace 1.14, written by Peter Selinger 2001-2017
</metadata>
<g transform="translate(0.000000,500.000000) scale(0.100000,-0.100000)"
fill="#000000" stroke="none">
<path d="M2417 4844 c-1 -1 -45 -5 -97 -8 -294 -22 -598 -105 -862 -237 -127
-64 -251 -136 -256 -150 -2 -5 -8 -9 -13 -9 -24 0 -204 -146 -327 -265 -448
-432 -707 -1045 -704 -1668 0 -92 9 -255 16 -295 2 -9 7 -44 11 -77 8 -76 46
-235 80 -345 241 -765 876 -1364 1655 -1560 63 -16 131 -32 150 -35 19 -3 46
-7 60 -10 24 -4 70 -9 185 -20 64 -6 321 -6 360 -1 17 3 59 7 95 10 251 22
551 113 803 244 126 66 119 62 217 126 181 118 400 316 536 486 339 422 515
923 516 1469 0 117 -3 166 -18 296 -39 344 -171 698 -374 1002 -83 124 -99
145 -220 281 -343 389 -865 665 -1395 741 -118 17 -407 34 -418 25z"/>
</g>
</svg>
